<svg xmlns="http://www.w3.org/2000/svg" xmlns:xlink="http://www.w3.org/1999/xlink" width="1440" height="1024" viewBox="0 0 1440 1024" fill="none"><g opacity="1"  transform="translate(0 0)  rotate(0)"><mask id="bg-mask-0" fill="white"><use transform="translate(0 0)  rotate(0)" xlink:href="#path_0"></use></mask><g mask="url(#bg-mask-0)" ><path id="圆形 1" fill-rule="evenodd" fill="url(#linear_0)" opacity="1" d="M291.5 -353C-48.98 -353 -325 -187.79 -325 16C-325 219.79 -48.98 385 291.5 385C631.98 385 908 219.79 908 16C908 -187.79 631.98 -353 291.5 -353Z"></path><path id="圆形 1" fill-rule="evenodd" fill="url(#linear_1)" opacity="1" d="M1217.5 -311C877.02 -311 601 -138.41 601 74.5C601 287.41 877.02 460 1217.5 460C1557.98 460 1834 287.41 1834 74.5C1834 -138.41 1557.98 -311 1217.5 -311Z"></path></g></g><defs><rect id="path_0" x="0" y="0" width="1440" height="1024" /><radialGradient id="linear_0" cx="50%" cy="50%" fx="50%" fy="50%" r="0.5" gradientTransform="translate(0.5 0.5) scale(0.5985401459854015 1) rotate(90) scale(1 1.66) translate(-0.5 -0.5)" ><stop offset="0" stop-color="#0015FC" stop-opacity="0.38" /><stop offset="1" stop-color="#0091FF" stop-opacity="0" /></radialGradient><radialGradient id="linear_1" cx="50%" cy="50%" fx="50%" fy="50%" r="0.5" gradientTransform="translate(0.5 0.5) scale(0.6253041362530414 1) rotate(90) scale(1 1.41) translate(-0.5 -0.5)" ><stop offset="0" stop-color="#00F8FC" stop-opacity="0.38" /><stop offset="0.944" stop-color="#00FFDD" stop-opacity="0" /></radialGradient></defs></svg>