<svg xmlns="http://www.w3.org/2000/svg" xmlns:xlink="http://www.w3.org/1999/xlink" width="155.052001953125" height="12.49200439453125" viewBox="0 0 155.052001953125 12.49200439453125" fill="none"><path id="文本 1" fill-rule="evenodd" style="fill:#000000" opacity="1" d="M2.48,5.83v-2.66c-0.55,0.99 -1.35,1.83 -2.35,2.52l-0.13,-0.19c0.97,-0.9 1.66,-2.08 2.08,-3.33h-1.76l-0.09,-0.35h2.25v-1.8l1.17,0.14c-0.03,0.16 -0.13,0.27 -0.43,0.32v1.34h0.61l0.51,-0.66c0,0 0.58,0.47 0.93,0.82c-0.03,0.13 -0.13,0.19 -0.3,0.19h-1.75v0.59c2.42,0.4 2.01,1.98 1.2,1.54c-0.2,-0.44 -0.71,-0.95 -1.2,-1.3v2.56c0,0.1 -0.33,0.27 -0.59,0.27zM8.14,6.36l0.48,-0.46l0.91,0.8c-0.1,0.09 -0.28,0.13 -0.58,0.14c-1.82,2.39 -4.4,3.6 -8.54,4.21l-0.1,-0.23c3.54,-0.75 6.03,-1.87 7.68,-4.11h-3.99c-0.18,0.17 -0.36,0.35 -0.57,0.5c2.03,0.59 1.66,1.97 0.94,1.56c-0.18,-0.47 -0.7,-0.98 -1.21,-1.34c-0.81,0.63 -1.77,1.21 -2.81,1.61l-0.13,-0.17c1.62,-0.84 3.15,-2.34 3.82,-3.49l1.12,0.48c-0.05,0.12 -0.19,0.18 -0.52,0.16c-0.09,0.11 -0.19,0.23 -0.3,0.34zM10.6,2.17h-2.21c0.61,1.13 1.69,2.05 2.72,2.5l-0.01,0.13c-0.31,0.05 -0.55,0.28 -0.65,0.65c-0.98,-0.69 -1.83,-1.8 -2.34,-3.22v3.33c0,0.1 -0.32,0.26 -0.61,0.26h-0.14v-2.78c-0.63,0.98 -1.53,1.8 -2.66,2.42l-0.13,-0.19c1.09,-0.81 1.87,-1.89 2.33,-3.1h-1.38l-0.1,-0.36h1.94v-1.74l1.2,0.13c-0.03,0.17 -0.14,0.29 -0.45,0.33v1.28h1.31l0.52,-0.66c0,0 0.61,0.47 0.97,0.83c-0.04,0.13 -0.15,0.19 -0.31,0.19zM18.46,1.25v1.32h2.94v-1.32zM21.4,4.27v-1.35h-2.94v1.35zM21.4,5.96v-1.33h-2.94v1.33zM18.46,6.32v0.47c0,0.1 -0.32,0.28 -0.64,0.28h-0.13v-6.54l0.81,0.37h2.78l0.44,-0.49l0.96,0.75c-0.07,0.1 -0.26,0.2 -0.5,0.24v5.4c-0.02,0.1 -0.4,0.28 -0.66,0.28h-0.12v-0.76zM16.85,7.22l0.13,-0.09c2.54,0.92 1.92,2.65 1.14,2.06c-0.11,-0.67 -0.73,-1.5 -1.27,-1.97zM13.62,7.73l0.22,0.01c0.28,1.36 -0.29,2.23 -0.76,2.56c-0.3,0.2 -0.72,0.26 -0.86,0.02c-0.1,-0.23 0.04,-0.47 0.27,-0.62c0.52,-0.29 1.08,-1.07 1.13,-1.97zM15.2,3.61v3.31c0,0.1 -0.33,0.29 -0.6,0.29h-0.15v-3.36c-0.58,1.09 -1.37,2.05 -2.37,2.83l-0.15,-0.18c1.03,-1.1 1.79,-2.58 2.24,-4.1h-2l-0.09,-0.35h2.37v-2.05l1.19,0.13c-0.03,0.17 -0.14,0.28 -0.44,0.33v1.59h0.74l0.54,-0.69c0,0 0.6,0.49 0.97,0.85c-0.03,0.13 -0.15,0.19 -0.31,0.19h-1.94v0.97c2.54,0.75 1.98,2.49 1.19,1.93c-0.13,-0.58 -0.66,-1.24 -1.19,-1.69zM20.53,8.56l0.04,1.27c0.29,0.08 0.37,0.18 0.37,0.32c0,0.39 -0.42,0.52 -2.84,0.52h-1.77c-1.11,0 -1.33,-0.16 -1.33,-0.78v-2.45l1.13,0.13c-0.01,0.13 -0.13,0.25 -0.35,0.29v1.88c0,0.18 0.05,0.22 0.64,0.22h1.72c0.8,0 1.37,-0.01 1.58,-0.02c0.19,-0.02 0.24,-0.05 0.3,-0.16c0.09,-0.18 0.22,-0.64 0.36,-1.22zM20.63,7.75l0.13,-0.09c2.88,1.2 2.24,3.13 1.39,2.49c-0.13,-0.8 -0.87,-1.81 -1.52,-2.4zM26.53,1.48v4.41h6.09v-4.41zM26.53,6.25v0.61c0,0.1 -0.32,0.29 -0.66,0.29h-0.13v-6.43l0.86,0.4h5.9l0.44,-0.5l0.98,0.77c-0.07,0.1 -0.26,0.19 -0.51,0.24v5.1c-0.01,0.09 -0.41,0.28 -0.67,0.28h-0.12v-0.76zM24.06,11.06l-0.12,-0.15c1.54,-0.97 3.08,-2.53 3.84,-3.75l1.1,0.59c-0.08,0.12 -0.19,0.17 -0.46,0.11c-0.9,1.08 -2.58,2.42 -4.36,3.2zM30.74,7.4l0.14,-0.12c4.47,1.84 4.18,4.18 3.13,3.59c-0.49,-1.14 -2.09,-2.61 -3.27,-3.47zM39.01,1.09v1.31h5.14v-1.31zM44.15,4.08v-1.34h-5.14v1.34zM39.01,4.44v0.38c0,0.08 -0.35,0.26 -0.67,0.26h-0.13v-4.73l0.86,0.39h4.96l0.45,-0.49l0.99,0.76c-0.07,0.09 -0.27,0.19 -0.51,0.24v3.45c-0.01,0.08 -0.42,0.27 -0.68,0.27h-0.13v-0.53zM41.96,7.86v2.16c0.36,0.02 0.76,0.04 1.19,0.04c0.9,0 3.01,0 3.95,-0.03v0.18c-0.29,0.04 -0.44,0.28 -0.46,0.58h-3.52c-2.2,0 -3.42,-0.41 -4.24,-2.31c-0.58,1.01 -1.45,1.95 -2.78,2.6l-0.12,-0.16c1.63,-1.09 2.43,-2.9 2.76,-4.49l1.24,0.3c-0.06,0.17 -0.19,0.25 -0.45,0.24c-0.13,0.42 -0.3,0.84 -0.52,1.26c0.51,1 1.18,1.47 2.14,1.67v-4.06h-4.96l-0.09,-0.34h9.24l0.58,-0.75c0,0 0.66,0.53 1.06,0.9c-0.02,0.13 -0.13,0.19 -0.31,0.19h-4.71v1.67h2.34l0.58,-0.74c0,0 0.66,0.53 1.07,0.9c-0.04,0.13 -0.16,0.19 -0.33,0.19zM55.01,5.15v-3.7h-3.01v3.45v0.25zM57.61,5.15l0.57,-0.75c0,0 0.62,0.53 1.02,0.9c-0.04,0.14 -0.16,0.2 -0.33,0.2h-3.06v5.28c0,0.07 -0.26,0.26 -0.67,0.26h-0.13v-5.54h-3.03c-0.09,2.22 -0.75,4.27 -3.85,5.54l-0.13,-0.16c2.51,-1.45 3.1,-3.24 3.18,-5.38h-3.08l-0.11,-0.35h3.2v-0.23v-3.47h-2.61l-0.11,-0.36h8.49l0.56,-0.69c0,0 0.63,0.49 1.02,0.86c-0.04,0.13 -0.15,0.19 -0.3,0.19h-2.43v3.7zM62.22,3.2c-0.32,1.23 -0.72,2.55 -1.09,3.57c0.62,0.29 1.13,0.55 1.56,0.83c0.56,-1.34 0.84,-2.84 0.98,-4.4zM64.03,2.36l0.88,0.78c-0.1,0.11 -0.21,0.16 -0.47,0.18c-0.18,1.64 -0.48,3.24 -1.21,4.64c1.99,1.44 1.46,2.47 0.74,2.06c-0.24,-0.44 -0.65,-0.91 -1.13,-1.39c-0.64,0.96 -1.53,1.8 -2.8,2.45l-0.12,-0.17c1.11,-0.72 1.92,-1.65 2.47,-2.7c-0.65,-0.57 -1.37,-1.11 -1.96,-1.5c0.3,-0.83 0.69,-2.17 1.02,-3.51h-1.37l-0.09,-0.34h1.56c0.26,-1.1 0.48,-2.15 0.59,-2.82l1.21,0.26c-0.05,0.13 -0.13,0.25 -0.47,0.26c-0.13,0.62 -0.32,1.42 -0.56,2.3h1.26zM69.54,9.7v-3.1h-3.36v3.1zM69.49,6.24l0.4,-0.47l0.86,0.69c-0.08,0.09 -0.21,0.15 -0.47,0.19v4.05c0,0.05 -0.28,0.23 -0.62,0.23h-0.12v-0.87h-3.36v0.75c0,0.06 -0.25,0.24 -0.62,0.24h-0.11v-5.18l0.86,0.37zM68.52,2.23l0.14,-0.09c3.17,1.56 2.54,3.73 1.65,3.03c-0.04,-0.27 -0.15,-0.56 -0.28,-0.86c-1.1,0.21 -2.71,0.5 -4.53,0.75c-0.08,0.12 -0.16,0.2 -0.24,0.23l-0.46,-1.01c0,0 0.22,-0.04 0.3,-0.13c0.8,-0.87 1.86,-2.93 2.24,-4.05l1.24,0.49c-0.05,0.12 -0.19,0.23 -0.44,0.2c-0.58,1.05 -1.65,2.52 -2.61,3.49c1.02,-0.02 2.67,-0.1 4.38,-0.22c-0.36,-0.68 -0.91,-1.36 -1.39,-1.83zM72.64,12.49l-0.2,-0.3c0.93,-0.51 1.2,-1.22 1.25,-1.74c-0.49,-0.18 -1.08,-0.38 -1.08,-0.99c0,-0.39 0.29,-0.74 0.78,-0.74c0.57,0 0.89,0.48 0.89,1.13c0,0.89 -0.4,2.04 -1.64,2.64zM93.76,1.26h-4.65c0.04,1.96 -1.59,1.48 -0.98,0.68c0.38,-0.24 0.62,-0.76 0.66,-1.68h0.19c0.05,0.24 0.08,0.46 0.11,0.65h4.61l0.5,-0.51l0.89,0.88c-0.09,0.1 -0.22,0.11 -0.43,0.12c-0.27,0.33 -0.74,0.9 -1.01,1.22l-0.17,-0.09c0.07,-0.3 0.19,-0.86 0.28,-1.27zM91.74,2.08l0.14,-0.11c3.08,1.38 2.62,3.18 1.76,2.63c-0.29,-0.8 -1.22,-1.89 -1.9,-2.52zM88.3,5l-0.15,-0.15c0.67,-0.69 1.5,-1.85 2.09,-3.04l1.02,0.6c-0.07,0.11 -0.23,0.21 -0.48,0.13c-0.71,1 -1.61,1.89 -2.48,2.46zM87.9,4.37l0.08,0.15c-0.4,0.32 -0.9,0.68 -1.48,1.12v4.25c0,0.65 -0.12,1.05 -1.18,1.16c-0.04,-0.25 -0.08,-0.47 -0.24,-0.59c-0.16,-0.14 -0.44,-0.24 -0.92,-0.31v-0.19c0,0 1.1,0.08 1.32,0.08c0.21,0 0.27,-0.06 0.27,-0.24v-3.62c-0.33,0.24 -0.69,0.49 -1.08,0.76c-0.01,0.13 -0.09,0.26 -0.2,0.32l-0.52,-0.92c0.35,-0.15 1.01,-0.46 1.8,-0.87v-2.34h-1.59l-0.1,-0.36h1.69v-2.7l1.19,0.13c-0.04,0.18 -0.16,0.3 -0.44,0.34v2.23h0.24l0.46,-0.62c0,0 0.56,0.44 0.88,0.79c-0.04,0.13 -0.14,0.19 -0.31,0.19h-1.27v1.97c0.45,-0.23 0.92,-0.48 1.4,-0.73zM94.68,5.94h-2.89c0.75,1.54 2.15,2.89 3.42,3.58l-0.03,0.12c-0.32,0.02 -0.57,0.25 -0.7,0.63c-1.14,-0.86 -2.19,-2.28 -2.85,-4.01v4.55c0,0.11 -0.32,0.29 -0.6,0.29h-0.14v-4.39c-0.85,1.5 -2.14,2.78 -3.73,3.74l-0.12,-0.18c1.45,-1.11 2.64,-2.71 3.33,-4.33h-2.43l-0.1,-0.35h3.05v-2.01l1.16,0.14c-0.03,0.16 -0.12,0.28 -0.42,0.31v1.56h1.78l0.55,-0.71c0,0 0.64,0.5 1.02,0.87c-0.04,0.13 -0.16,0.19 -0.3,0.19zM99.06,8.24l0.98,0.56c-0.07,0.12 -0.18,0.15 -0.44,0.09c-0.73,0.69 -2.12,1.49 -3.47,1.93l-0.12,-0.15c1.17,-0.61 2.43,-1.63 3.05,-2.43zM103.01,8.5l0.11,-0.15c3.92,0.72 3.86,2.76 2.83,2.4c-0.54,-0.8 -1.93,-1.76 -2.94,-2.25zM106.07,2.59l0.97,0.93c-0.1,0.09 -0.24,0.12 -0.47,0.13c-0.31,0.44 -0.91,1.03 -1.39,1.38l-0.16,-0.1c0.2,-0.39 0.4,-0.98 0.54,-1.44h-4.36l0.82,0.55c-0.07,0.1 -0.24,0.21 -0.51,0.11c-0.63,0.35 -1.61,0.82 -2.57,1.15c0.92,-0.04 2.2,-0.14 3.52,-0.24c0.49,-0.27 0.92,-0.52 1.23,-0.74l0.89,0.72c-0.08,0.1 -0.26,0.16 -0.54,0.04c-1.28,0.66 -3.62,1.59 -5.77,2.2c1.5,-0.04 3.84,-0.13 6.33,-0.26c-0.39,-0.36 -0.85,-0.7 -1.24,-0.94l0.1,-0.1c3.32,0.8 3.04,2.77 2.13,2.29c-0.13,-0.33 -0.39,-0.65 -0.71,-0.99c-0.83,0.1 -1.82,0.21 -2.96,0.32v2.41c0,0.6 -0.15,0.96 -1.12,1.05c-0.01,-0.2 -0.06,-0.38 -0.19,-0.49c-0.13,-0.11 -0.37,-0.19 -0.82,-0.24v-0.18c0,0 0.91,0.06 1.13,0.06c0.18,0 0.23,-0.07 0.23,-0.2v-2.34c-1.06,0.11 -2.21,0.21 -3.45,0.31c-0.07,0.11 -0.15,0.17 -0.24,0.19l-0.38,-0.96c0,0 0.26,-0.01 0.4,-0.06c1.29,-0.36 2.85,-1.02 4.14,-1.65c-0.94,0.15 -2.06,0.32 -3.24,0.46c-0.08,0.1 -0.16,0.14 -0.23,0.17l-0.35,-0.86c0,0 0.19,-0.04 0.29,-0.07c1.07,-0.32 2.4,-1.22 3,-1.71h-3.52c-0.07,2.16 -2.01,1.72 -1.38,0.89c0.54,-0.23 1.02,-0.79 1.12,-1.79l0.2,0.01c0.04,0.2 0.05,0.36 0.06,0.53h3.58v-1.33h-3.72l-0.11,-0.36h3.83v-1.36l1.21,0.14c-0.02,0.16 -0.14,0.28 -0.44,0.32v0.9h2.64l0.61,-0.72c0,0 0.67,0.5 1.1,0.89c-0.03,0.13 -0.15,0.19 -0.32,0.19h-4.03v1.33h3.61zM111.43,0.32l0.04,-0.2c4.25,0.34 4.05,2.35 3.13,2c-0.47,-0.55 -1.61,-1.35 -3.17,-1.8zM111.73,4.42l0.84,0.74c-0.09,0.11 -0.2,0.14 -0.48,0.16c-0.61,1.94 -1.8,3.76 -4.03,4.87l-0.12,-0.18c1.75,-1.13 2.84,-2.91 3.34,-4.78h-2.96l-0.1,-0.35h3.02zM117.38,3l1.06,0.66c-0.08,0.11 -0.19,0.16 -0.46,0.08c-0.68,0.65 -1.86,1.54 -2.97,2.16c1.04,1.8 2.59,2.81 4.15,3.47l-0.04,0.13c-0.33,0.05 -0.58,0.3 -0.7,0.69c-2.06,-1.19 -3.63,-2.81 -4.4,-6.13v5.84c0,0.62 -0.14,1.03 -1.35,1.15c-0.04,-0.25 -0.12,-0.45 -0.3,-0.57c-0.22,-0.14 -0.55,-0.24 -1.17,-0.32v-0.19c0,0 1.43,0.11 1.72,0.11c0.24,0 0.3,-0.08 0.3,-0.29v-6.69h-3.14l-0.1,-0.36h3.12l0.42,-0.51l1.04,0.78c-0.08,0.1 -0.3,0.21 -0.54,0.25v0.04c0.21,0.91 0.51,1.7 0.87,2.39c0.93,-0.79 1.98,-1.92 2.49,-2.69zM130.61,1.48h-4c-0.25,0.58 -0.55,1.17 -0.91,1.75l0.59,0.21c-0.05,0.11 -0.16,0.2 -0.37,0.23v7.18c0,0.05 -0.35,0.23 -0.64,0.23h-0.16v-6.96c-1.32,1.87 -3.07,3.58 -5.07,4.82l-0.13,-0.14c2.47,-1.89 4.69,-4.73 5.64,-7.32h-5.36l-0.1,-0.35h9.04l0.63,-0.78c0,0 0.72,0.54 1.17,0.93c-0.03,0.14 -0.15,0.2 -0.33,0.2zM126.5,4.6l0.12,-0.14c4.98,1.88 4.8,4.23 3.71,3.68c-0.65,-1.16 -2.51,-2.69 -3.83,-3.54zM141.29,10.22l0.62,-0.78c0,0 0.71,0.54 1.13,0.94c-0.04,0.13 -0.13,0.19 -0.31,0.19h-10.6l-0.09,-0.35h2.05v-7.21l1.25,0.13c-0.03,0.17 -0.15,0.29 -0.44,0.34v6.74h2.49v-9.94l1.23,0.13c-0.03,0.18 -0.13,0.29 -0.43,0.33v3.93h2.34l0.61,-0.77c0,0 0.7,0.54 1.13,0.92c-0.03,0.14 -0.15,0.2 -0.31,0.2h-3.77v5.2zM144.29,11.11l-0.05,-0.23c3.67,-0.67 6.52,-1.6 8.6,-5.32l1.13,0.62c-0.09,0.13 -0.23,0.16 -0.54,0.1c-2.34,3.6 -5.21,4.41 -9.14,4.83zM146.92,5.39l1.09,0.55c-0.07,0.11 -0.17,0.17 -0.45,0.11c-0.64,0.89 -1.84,1.97 -3.15,2.63l-0.12,-0.17c1.08,-0.81 2.13,-2.14 2.63,-3.12zM149.94,5.53v2.99c0,0.11 -0.36,0.31 -0.66,0.31h-0.12v-3.75l1.22,0.12c-0.02,0.18 -0.13,0.28 -0.44,0.33zM153.4,4.42l0.57,-0.72c0,0 0.67,0.5 1.08,0.88c-0.02,0.14 -0.15,0.2 -0.32,0.2h-10.6l-0.11,-0.36h2.26v-3.39l1.15,0.12c-0.02,0.16 -0.13,0.27 -0.39,0.31v2.96h2.12v-4.35l1.22,0.13c-0.02,0.17 -0.14,0.29 -0.44,0.34v1.61h2.18l0.58,-0.73c0,0 0.67,0.51 1.08,0.88c-0.04,0.14 -0.14,0.2 -0.32,0.2h-3.52v1.92z"></path></svg>