<svg xmlns="http://www.w3.org/2000/svg" height="25" viewBox="0 0 870.28 422.9"><defs><style>.a{fill:#db0000;}.b{fill:#b99968;}</style></defs><path class="a" d="M499.57,2c18.4-1.12,28,36.21,47.88,36.13,4.9.49,10.75-1.66,11.87-6.46,1.82-7.16-12.87-19.59-1.82-24.11,9.6,1.28,16,12.29,19.49,20.59.71,2,1.36,4.15,3,5.41,2,1.49,4.72,1.21,7.2,1.32,11.5,1,25.08,12.27,29.59,23,.79,6.58-7.43,10.46-14.05,10.5-12.46-1.27-22.87.34-25.18,14.32l-17.91,63.89,38.62-14.73c4.77-2.5,9.76-1.2,13.51,2.49,8.33,6,14.19,16.7,4.58,23.52l-26.91,25.15c8.34,3.84,20.38,11,20.17,21.24-2.29,10.09-30,1.16-49.87,16.42,35.63,24,77.4,49.91,122,40.89-4.77-1.16-5.48-8.34-2.26-12,11.56-8.85,30.34-7.06,44.3-10.95-8.67-2.51-33.15-41.18-10.88-34,8.37,4.45,13.29,15.51,22.74,16.18,18.21-.55,17.49-24,11.62-36.56-10.26,6.9-32.17,8.71-31.79-8,6.3-20,42.83-3.9,34.81-36.18-7.22.77-22.26,11.76-25.58,1.61-1.72-5.23-6.61-10.52-5.63-16.15.83-2.15,3.27-3.15,5.45-3.91l30.86-10.8c6.55-2.29,13.4-4.62,20.28-3.73,8.15.81,17.43,9.33,12.93,17.45-8.73,6-20.14,7.89-29.82,12.27,8,9,42.32,27.9,19.68,37.91-6.7,4-5.79,28.24-1.44,34.73,8-4.95,10.87-15.54,18.55-20.91,9.64-6.74,18,1.88,17.08,11.76-.7,7.75-5.16,18.2-12.66,21.69,23.08,11.6,51.63-14,70.6,18.87,7.2,12.53-5.74,17.65-17.27,15.07-35.62-5-71.68,2.49-106.87,9.94-18.17,4.55-37.3,6.33-54.87,12.83-54.19,42.49-106.56-23.31-151-50a266.15,266.15,0,0,0-22.79,58.53c-.81,3.14-1.72,6.54-4.3,8.51-4.81,3.68-20.34-6.28-19.17-12,5.13-6.1,11.43-36.81,14.31-40.5-19.56,1.63-33.79,20.66-53.47,21.88-18.24,1.08-34.42-21.46-9-25.74,15.53-3,85.36-24,75.83-45.33-8.18,6.39-30.62,24.14-38,10.21-5.7-9.83-18.87-32.67-10.55-42.84,14.72-6,32.76,7.12,47.93.84,8.53-3.74,10.3-14.86,2-19.52a50.89,50.89,0,0,1-17.63-35C505.66,90,486.48,114,465,106.61c-11.5-3-23.77-16.36-18.24-28.17,2.28-2.53,6.36-1.36,9.66-.52C469,81,492.74,75.51,502.21,66.24c1.47-19.15-3.21-39-4-58.41C498.07,5.79,498.14,3.28,499.57,2Zm30.32,49.67c-2.95,2.36-.7,11.28,3.2,5.45C534.81,55,532.82,50.5,529.89,51.69Zm14,32.76c-4.48,5,3.08,11.29,1,16.35a10.53,10.53,0,0,0-2.09,6.69c-.26,9.89-7.42,20.8-2.65,30.42,6.29-12.48,8.93-28,13-41.82C555.85,85.84,557.42,74.19,543.86,84.45Zm9.68,96.94c-6.36-.35-7.66,8.65-3,5.66,1.83-1.39,2.63-3.73,4.09-5.51,2.43-3,6.62-4.35,8.52-7.7C559.92,176.27,557.1,179.46,553.54,181.39Z" transform="translate(-2.46 -1.1)"/><path class="a" d="M725.66,27c.76-3.44,3.71-6.66,6.6-3.69,11.38,8,23,24,9.91,35.05,12.74,16.5,39.26,7.45,56.5,14,6.34,3.71,12.6,9.29,15.94,15.89,3.84,12.42-8,13.25-17,9.06-20.49-4-46.15-2.62-59.82-20.53C715.43,121,687.91,162.39,662.53,205c-2.13,5-7.84,5.67-12,2.29-4.77-3.42-11.59-11.34-9.88-17.4C674.8,139.08,711.24,88,725.66,27Z" transform="translate(-2.46 -1.1)"/><path class="a" d="M344.24,46.94c14.34-3.25,28.2,1.93,38.3,12.23,29.59,27.23-39.54,53.5-42.48,80.73.23,39.44,60-21.24,83.53,14.1,6.43,11.15-1.37,19.28-13.1,16.38a52.08,52.08,0,0,0-29.27,6c-6.48,2.56-6.93,9.38-4.94,15.39,4.35,10.5,10.4,93.85-13.55,74.14l-61.68-47.87c-2.71-2.11-5.75-5.2-4.59-8.44-7.4.59-13.53,6.37-20.89,7.35-13.74,1.56-23.08-14.24-25.65-25.7.38-3.86,5-5.47,8.82-6.26a362.55,362.55,0,0,0,71.52-22.9c-2.55-7.84-9.48-13.6-12.28-21.34-4.06-11.22,1.5-23.73,9-33,7.93-11.2,23.76-19.73,25.38-34-21.65,5.14-43.16,14.81-65,17.49-5.3-3.49-14.3-17.94-14-24.28.89-2.93,4.51-3.85,7.54-4.33C302.66,59.92,323,51.68,344.24,46.94Zm-6.4,142.73a202.35,202.35,0,0,0-29.7,12.76c-5.6,2.95-2.38,4.81,1.33,7.2q20.61,13.31,41.91,25.52a76.82,76.82,0,0,0,2.4-39.73C352.48,185.5,345.07,186.62,337.84,189.67Z" transform="translate(-2.46 -1.1)"/><path class="a" d="M236.06,219.6c7.7-3.08,12.69,4.29,17.41,9.15,8.24,5.58,14.79,13.64,24.47,16.62,11,8.31,3.7,30-11.21,20.85-8.92-5.64-15.36-14.55-23-21.7C238,238.61,223.18,225.49,236.06,219.6Z" transform="translate(-2.46 -1.1)"/><path class="a" d="M183.46,183.24c18.1-13.73,19.36,27.22,22,37.44a156.89,156.89,0,0,0,7,23c5.94-3.29,16.41-2.58,15.23,6.32-.47,10-6,20.11-2.92,29.65,4,7,4.17,16.31-5.45,18.25-24.55.43-26.78-40.84-30.81-58.84C186.21,220.7,180.77,201.57,183.46,183.24Z" transform="translate(-2.46 -1.1)"/><path class="a" d="M141.82,1.59c1.83-1.11,4-.13,5.65.9,22.8,14.52,68.92,20.84,74.78,49.3-1.24,3.15-5.17,4.05-8.5,4.62A168.91,168.91,0,0,0,182,65.11c-8.08,2.17-12.88,8.72-13.17,17l-9.51,67.3c6.93.22,12.67-5.58,19.52-6.7,11.78-2.89,43.76,21.32,16.44,24-8.63,1-41.78,8.92-37,21.06a130.12,130.12,0,0,1,2.38,50.6,173.16,173.16,0,0,0-4.14,48c-2.9,12.51-14.14,9.31-19.67.11a78.84,78.84,0,0,0-22.64-19.61c-.22,8.68-6.38,16.65-14.19,20.19-10.88,3.75-20.71-12.42-23.27-21.33-5.56-16.54,10.28-33.47,4.65-49.08L28.8,246.13c-8.5,6.41-18.09,3.26-23.47-5.54-1.57-2-3.24-4.36-2.8-6.88s2.54-4,4.51-5.4c40.34-30.83,86.24-55.9,123.37-90.31,10.61-15,7.8-35.18,9.26-53.49C122,93.14,105.13,105.28,86.84,112c-4.27-1.46-15.24-13.63-14.57-18.29.5-3.86,4.73-5.87,8.36-7.27a340.24,340.24,0,0,0,54.64-26.8c6.12-2.79,8.47-8.82,7.23-15.28C143,35.07,135.88,6.72,141.82,1.59Zm28.62,27a45.19,45.19,0,0,0-1.37,15c6.46-.75,13.61-2.36,18.19-7.3-.66-2.88-2.63-5.69-5.71-6.22C177.81,29.56,174.17,26.4,170.44,28.62ZM110.1,200.2c-22,11.66-11.17,8.85-.1,21,5.12,6.07,9.22,38.87,21.39,33.52,8.09-13.24,7-50.76,3.18-66.1C126,190.37,118.77,197.58,110.1,200.2Z" transform="translate(-2.46 -1.1)"/><path class="b" d="M86.52,366c7.85-7.85,21.49-9,30.47-2.41,4.52,3.32,7.18,8.46,8.64,13.77-3.42,1.38-6.84,2.77-10.23,4.23-1.35-4-2.81-8.53-6.61-10.93-5.19-3-12.42-1-15.9,3.71-3.71,5-4.3,11.54-4.18,17.58,0,5.77.87,11.82,4,16.79,3.34,5.27,11.14,7.67,16.47,4,4.31-3,5.79-8.33,7.06-13.14q5.13,1.64,10.27,3.22c-1.79,9.57-7.75,20.11-18.42,21.2H99.66c-6-.86-11.85-3.67-15.45-8.65-5.28-7.28-6.63-16.64-6.43-25.42C78.21,381.39,80.31,372.27,86.52,366Z" transform="translate(-2.46 -1.1)"/><path class="b" d="M156.77,360c3.4,0,6.8,0,10.2,0-.08,8.41,0,16.83,0,25.24q12.77,0,25.54,0c0-8.42,0-16.84,0-25.26h9.93q0,31.58,0,63.16h-9.92c0-9.24,0-18.48,0-27.72-8.52,0-17,0-25.55,0q0,13.88,0,27.74c-3.39,0-6.79,0-10.18,0Q156.77,391.61,156.77,360Z" transform="translate(-2.46 -1.1)"/><path class="b" d="M237.23,360.29c3.41,0,6.81,0,10.21,0q0,31.57,0,63.16h-10.2Q237.22,391.86,237.23,360.29Z" transform="translate(-2.46 -1.1)"/><path class="b" d="M279.5,360.29h42.13a15.82,15.82,0,0,1-3.43,13.27q-13.65,20.07-27.31,40.15l32,0-.14,9.53q-22.62-.14-45.26,0s-.11-3.61-.12-3.94a7.41,7.41,0,0,1,0-1.63,10.6,10.6,0,0,1,.45-1.65,24,24,0,0,1,2.92-5.17L308.57,370,279.5,370Z" transform="translate(-2.46 -1.1)"/><path class="b" d="M353.24,360.29c3.4,0,6.8,0,10.2,0q0,31.57,0,63.16H353.24Q353.23,391.86,353.24,360.29Z" transform="translate(-2.46 -1.1)"/><path class="b" d="M444.23,360.29c3.4,0,6.81,0,10.21,0q0,31.57,0,63.16h-10.2Q444.23,391.86,444.23,360.29Z" transform="translate(-2.46 -1.1)"/><path class="b" d="M489,360.27c3.46,0,6.93,0,10.4,0,5.46,8.45,11,16.88,16.41,25.34,4.7,7.44,9.95,14.57,13.64,22.6-.89-16-.19-32-.45-48,3.47,0,7,0,10.43,0q0,31.57,0,63.16H529.29c-6.6-10.17-13.1-20.4-19.66-30.59-3.87-6.06-8.05-12-10.93-18.59.5,16.39.09,32.79.25,49.18-3.31,0-6.62,0-9.93,0C489,402.4,489.07,381.34,489,360.27Z" transform="translate(-2.46 -1.1)"/><path class="b" d="M583.6,363c8.31-4.56,19.09-5.19,27.5-.51,6,3.22,9.6,9.4,12.09,15.53q-4.89,2.21-9.7,4.6c-1.72-4.36-3.77-9.06-8-11.47-7.76-4.45-18.7-.51-22.3,7.58-4.18,9.37-3.81,21.1,1.94,29.74,6.52,8.85,20.55,8.51,28.14,1.2q0-5.59,0-11.19c-5.58,0-11.16,0-16.73,0,0-3.24,0-6.47,0-9.71h26.92c0,6.75,0,13.51,0,20.26-.15,1.42.21,3-.57,4.31-3.77,5.92-10.3,9.62-17.15,10.69H593.3c-7.85-1.18-15.26-5.79-18.92-13-4.75-9.25-5.39-20.29-3-30.31C573,373.59,577,366.59,583.6,363Z" transform="translate(-2.46 -1.1)"/><path class="b" d="M658.23,360h10.21q0,31.58,0,63.16H658.24Q658.23,391.58,658.23,360Z" transform="translate(-2.46 -1.1)"/><path class="b" d="M703.23,360.29c3.4,0,6.81,0,10.21,0q0,31.57,0,63.16H703.24Q703.23,391.86,703.23,360.29Z" transform="translate(-2.46 -1.1)"/><path class="b" d="M748,360.27c3.46,0,6.92,0,10.4,0,5.48,8.48,11,16.94,16.46,25.43,4.68,7.41,9.92,14.51,13.59,22.52-.88-16-.2-32-.46-48h10.44q0,31.57,0,63.16H788.29c-6.59-10.17-13.1-20.39-19.66-30.58-3.86-6.07-8-12-10.92-18.6.49,16.39.08,32.79.24,49.18-3.31,0-6.62,0-9.93,0Q748,391.86,748,360.27Z" transform="translate(-2.46 -1.1)"/></svg>